<?xml version="1.0" standalone="no"?><!DOCTYPE svg PUBLIC "-//W3C//DTD SVG 1.1//EN" "http://www.w3.org/Graphics/SVG/1.1/DTD/svg11.dtd"><svg t="1483537434112" class="icon" style="" viewBox="0 0 1024 1024" version="1.1" xmlns="http://www.w3.org/2000/svg" p-id="6317" xmlns:xlink="http://www.w3.org/1999/xlink" width="200" height="200"><defs><style type="text/css"></style></defs><path d="M959.381504 590.051328l-108.86144-128.444416 108.929024-131.221504c1.957888-2.361344 2.762752-5.485568 2.193408-8.491008-0.5632-3.018752-2.454528-5.619712-5.137408-7.108608l-231.31136-127.920128c-10.066944-75.945984-63.967232-124.795904-64.27648-125.024256C617.793536 16.06144 548.5824 8.670208 515.2768 7.947264c-0.38912-0.039936-0.77824-0.067584-1.16736-0.067584l-4.7616 0c-0.38912 0-0.77824 0.026624-1.160192 0.067584-33.304576 0.724992-102.482944 8.075264-144.976896 53.250048-0.77824 0.68096-54.97344 49.810432-64.9728 125.976576L67.493888 314.785792c-2.689024 1.488896-4.574208 4.09088-5.137408 7.108608-0.570368 3.00544 0.23552 6.116352 2.193408 8.491008l108.921856 131.22048L64.617472 590.051328c-1.951744 2.307072-2.796544 5.338112-2.307072 8.315904 0.482304 2.977792 2.246656 5.593088 4.822016 7.16288l86.019072 52.156416-0.402432 145.097728c-0.013312 3.675136 1.9456 7.081984 5.116928 8.933376l348.701696 203.008c1.60256 0.924672 3.393536 1.394688 5.184512 1.394688 0.08704 0 0.160768-0.063488 0.248832-0.067584 0.08704 0.003072 0.160768 0.067584 0.247808 0.067584 1.790976 0 3.581952-0.468992 5.184512-1.394688l348.701696-203.009024c3.172352-1.851392 5.13024-5.25824 5.116928-8.933376l-0.408576-145.097728 86.02624-52.156416c2.57536-1.568768 4.338688-4.184064 4.822016-7.16288C962.179072 595.38944 961.333248 592.3584 959.381504 590.051328zM512 631.937024l-81.98144-45.914112c0.007168-0.287744 0.007168-0.60416 0.007168-0.9216l163.063808 0 0 1.414144L512 631.937024zM361.201664 370.235392c25.203712 36.873216 48.904192 71.750656 48.904192 110.229504 0 22.064128-0.361472 65.255424-0.5632 90.230784-0.013312 1.388544-0.026624 2.568192-0.033792 3.838976L207.540224 461.412352 361.201664 370.235392zM592.766976 490.994688c0.007168 7.769088 0.033792 16.80384 0.067584 26.235904L430.555136 517.230592c0.060416-9.41568 0.114688-18.450432 0.134144-26.235904L592.766976 490.994688zM474.228736 470.392832c2.031616-21.655552 3.7888-73.892864-21.158912-108.164096-9.698304-13.33248-30.3872-46.865408-12.8768-70.325248 6.284288-8.410112 13.554688-12.98432 22.22592-13.976576 20.281344-2.253824 41.601024 15.478784 41.816064 15.6672 1.85856 1.568768 4.238336 2.454528 6.673408 2.454528l1.649664 0c2.441216 0 4.814848-0.884736 6.679552-2.454528 0.207872-0.188416 21.474304-17.92 41.816064-15.6672 8.671232 0.992256 15.940608 5.566464 22.218752 13.976576 17.517568 23.45984-3.172352 56.992768-12.8768 70.325248-24.941568 34.270208-23.184384 86.508544-21.158912 108.164096L474.228736 470.392832zM430.405632 537.833472l162.49344 0c0.033792 9.540608 0.073728 18.64192 0.10752 26.66496l-162.816 0C430.258176 556.50816 430.332928 547.406848 430.405632 537.833472zM613.649408 575.0016l-0.013312-3.56864c-0.10752-25.243648-0.282624-68.8896-0.282624-90.968064 0-38.556672 23.800832-73.500672 49.058816-110.454784l154.044416 91.400192L613.649408 575.0016zM935.648256 326.790144l-100.880384 121.536512L673.989632 352.93184c12.132352-18.147328 23.983104-37.076992 33.606656-57.904128 13.842432-29.937664 19.21536-58.058752 19.241984-83.715072L935.648256 326.790144zM377.53856 75.978752c39.261184-41.688064 105.192448-47.213568 134.192128-47.48288 29.005824 0.268288 94.958592 5.82144 134.868992 48.126976 0.986112 0.871424 98.19136 88.822784 42.298368 209.769472-11.911168 25.7536-27.866112 49.119232-43.297792 71.706624-25.109504 36.745216-48.663552 71.686144-52.143104 112.294912l-23.506944 0c-1.764352-17.755136-4.291584-66.642944 17.094656-96.038912 26.203136-35.974144 30.843904-70.51264 12.735488-94.764032-9.75872-13.078528-22.043648-20.521984-36.516864-22.145024-21.49376-2.307072-41.856 9.30816-51.526656 16.028672-9.684992-6.733824-30.005248-18.429952-51.5328-16.028672-14.473216 1.62304-26.759168 9.06752-36.524032 22.145024-18.101248 24.250368-13.46048 58.789888 12.735488 94.764032 21.394432 29.394944 18.865152 78.281728 17.094656 96.038912l-23.499776 0c-3.480576-40.607744-27.0336-75.549696-52.13696-112.294912-1.508352-2.20672-3.024896-4.463616-4.534272-6.68672-0.053248-0.091136-0.047104-0.19456-0.10752-0.288768-0.100352-0.171008-0.268288-0.262144-0.374784-0.421888-13.821952-20.315136-27.664384-41.339904-38.281216-64.310272-15.17056-32.815104-19.19488-63.01184-17.001472-89.713664 0.408576-1.348608 0.54272-2.762752 0.374784-4.18816C325.402624 123.460608 374.192128 78.992384 377.53856 75.978752zM296.629248 211.608576c0.067584 25.582592 5.451776 53.599232 19.234816 83.419136 9.664512 20.914176 21.574656 39.9104 33.767424 58.129408l-160.401408 95.169536L88.35072 326.790144 296.629248 211.608576zM189.298688 474.805248l305.887232 171.32544-100.780032 133.742592L88.137728 594.168832 189.298688 474.805248zM173.3632 796.896256l0.355328-126.734336L391.69024 802.327552c1.662976 1.005568 3.501056 1.488896 5.330944 1.488896 3.13856 0 6.216704-1.434624 8.228864-4.105216L501.448704 672.0512l0 315.846656L173.3632 796.896256zM850.634752 796.896256 522.549248 987.899904 522.549248 672.059392l96.192512 127.652864c2.011136 2.668544 5.090304 4.105216 8.228864 4.105216 1.830912 0 3.675136-0.482304 5.339136-1.488896l217.964544-132.166656L850.634752 796.896256zM629.584896 779.874304l-100.772864-133.742592 305.887232-171.326464 101.161984 119.363584L629.584896 779.874304z" p-id="6318"></path></svg>