<?xml version="1.0" standalone="no"?><!DOCTYPE svg PUBLIC "-//W3C//DTD SVG 1.1//EN" "http://www.w3.org/Graphics/SVG/1.1/DTD/svg11.dtd"><svg t="1483535772436" class="icon" style="" viewBox="0 0 1024 1024" version="1.1" xmlns="http://www.w3.org/2000/svg" p-id="2017" xmlns:xlink="http://www.w3.org/1999/xlink" width="200" height="200"><defs><style type="text/css"></style></defs><path d="M511.999488 33.379225c-264.339434 0-478.617705 214.283388-478.617705 478.617705 0 264.333294 214.278271 478.623845 478.617705 478.623845 264.327154 0 478.617705-214.290551 478.617705-478.623845C990.617194 247.663636 776.326643 33.379225 511.999488 33.379225zM600.165504 852.073302 423.833473 852.073302l0-62.97631 176.332031 0L600.165504 852.073302zM650.484539 637.414361l0.062422 0.073678c-21.279652 14.352893-50.380434 50.466392-50.380434 100.785427l0 25.63382-75.571163 0L524.595364 484.519112c21.683858-5.614881 37.773302-25.12319 37.773302-48.530296 0-27.77867-22.546505-50.312896-50.369178-50.312896-27.822672 0-50.368154 22.534226-50.368154 50.312896 0 23.407106 16.08842 42.915415 37.773302 48.530296l0 279.388175-75.571163 0 0-25.63382c0-47.3801-28.006867-83.295078-47.502897-98.657974l-3.812839-2.963495c-60.58996-45.929052-99.82659-118.468159-99.82659-200.306048 0-138.964982 100.171444-251.633041 239.308341-251.633041s239.308341 112.669082 239.308341 251.633041C751.307829 518.638187 711.652667 591.535451 650.484539 637.414361z" p-id="2018"></path></svg>