<?xml version="1.0" standalone="no"?><!DOCTYPE svg PUBLIC "-//W3C//DTD SVG 1.1//EN" "http://www.w3.org/Graphics/SVG/1.1/DTD/svg11.dtd"><svg t="1483537262862" class="icon" style="" viewBox="0 0 1071 1024" version="1.1" xmlns="http://www.w3.org/2000/svg" p-id="1563" xmlns:xlink="http://www.w3.org/1999/xlink" width="209.1796875" height="200"><defs><style type="text/css"></style></defs><path d="M151.272727 0C80.584751 0 23.272727 57.311977 23.272727 128L23.272727 800C23.272727 870.688023 83.592704 906.015977 151.272727 928L503.272727 1024 503.272727 96C342.888727 52.992 151.272727 0 151.272727 0L151.272727 0ZM919.272727 0C919.272727 0 734.056727 51.008 565.704751 96L567.272727 96 567.272727 1024C747.016751 976.031977 919.272727 928 919.272727 928 984.968704 911.008023 1047.272727 870.688023 1047.272727 800L1047.272727 128C1047.272727 57.311977 989.960704 0 919.272727 0L919.272727 0Z" p-id="1564"></path></svg>