<?xml version="1.0" standalone="no"?><!DOCTYPE svg PUBLIC "-//W3C//DTD SVG 1.1//EN" "http://www.w3.org/Graphics/SVG/1.1/DTD/svg11.dtd"><svg t="1483537248078" class="icon" style="" viewBox="0 0 1024 1024" version="1.1" xmlns="http://www.w3.org/2000/svg" p-id="1451" xmlns:xlink="http://www.w3.org/1999/xlink" width="200" height="200"><defs><style type="text/css"></style></defs><path d="M781.544 835.48c-1.128 0-2.24 0.064-3.336 0.168 0.184-1.504 0.312-3.024 0.312-4.576 0-21.128-17.64-38.256-39.4-38.256-12.32 0-23.312 5.496-30.536 14.096-4.192-1.472-8.696-2.32-13.408-2.32-20.496 0-37.328 15.2-39.216 34.624-15.696 3.296-27.464 16.84-27.464 33.064 0 12.952 7.504 24.2 18.512 29.888-3.08 5.048-4.872 10.912-4.872 17.2 0 18.688 15.608 33.848 34.856 33.848 8.016 0 15.352-2.68 21.24-7.096 3.016 1.248 6.256 2.072 9.632 2.448-0.248 14.36-2.568 35.8-12.688 53.208-5.48 10.672-6.632 11.768 4.544 11.768 11.176 0 50.008 0 50.008 0s9.384 0.496 4.544-7.36c-3.928-6.384-13.8-19.696-15.472-53.024 7.584-0.256 14.552-2.848 20.16-7.08 4.16 1.712 8.704 2.72 13.504 2.72 19.248 0 34.856-15.152 34.856-33.848 0-6.68-2.024-12.896-5.464-18.144 8.8-6.144 14.56-16.144 14.56-27.472C816.4 850.632 800.8 835.48 781.544 835.48zM923.784 357.064c0-85.152-69.112-154.184-154.36-154.184-4.96 0-9.864 0.256-14.704 0.712 0.816-6.832 1.28-13.776 1.28-20.824 0-96.264-78.12-174.296-174.496-174.296-54.488 0-103.128 24.96-135.128 64.04-18.568-6.728-38.6-10.408-59.496-10.408-90.76 0-165.312 69.224-173.688 157.696-69.512 15.008-121.608 76.752-121.608 150.672 0 58.968 33.16 110.192 81.856 136.12-13.608 22.976-21.448 49.768-21.448 78.392 0 85.152 69.112 154.184 154.36 154.184 35.544 0 68.248-12.04 94.328-32.208 13.296 5.616 27.56 9.384 42.448 11.072-1.144 65.432-11.496 163.168-56.24 242.36-24.28 48.632-29.368 53.632 20.136 53.632 49.496 0 221.472 0 221.472 0s41.552 2.272 20.136-33.52c-17.392-29.064-61.08-89.72-68.528-241.448 33.536-1.136 64.344-12.96 89.152-32.16 18.432 7.776 38.648 12.16 59.912 12.16 85.248 0 154.36-69.032 154.36-154.184 0-30.408-8.848-58.728-24.056-82.616C898.4 454.28 923.784 408.648 923.784 357.064z" p-id="1452"></path></svg>