<?xml version="1.0" standalone="no"?><!DOCTYPE svg PUBLIC "-//W3C//DTD SVG 1.1//EN" "http://www.w3.org/Graphics/SVG/1.1/DTD/svg11.dtd"><svg t="1483537276414" class="icon" style="" viewBox="0 0 1024 1024" version="1.1" xmlns="http://www.w3.org/2000/svg" p-id="2253" xmlns:xlink="http://www.w3.org/1999/xlink" width="200" height="200"><defs><style type="text/css"></style></defs><path d="M409.6 405.333333l93.866667 0c25.6 0 42.666667-21.333333 42.666667-42.666667L546.133333 264.533333c0-25.6-21.333333-42.666667-42.666667-42.666667L409.6 221.866667c-25.6 0-42.666667 21.333333-42.666667 42.666667l0 93.866667C366.933333 384 384 405.333333 409.6 405.333333zM418.133333 273.066667l76.8 0 0 76.8L418.133333 349.866667 418.133333 273.066667z" p-id="2254"></path><path d="M644.266667 405.333333l93.866667 0c25.6 0 42.666667-21.333333 42.666667-42.666667L780.8 264.533333c0-25.6-21.333333-42.666667-42.666667-42.666667l-93.866667 0c-25.6 0-42.666667 21.333333-42.666667 42.666667l0 93.866667C601.6 384 622.933333 405.333333 644.266667 405.333333zM652.8 273.066667l76.8 0 0 76.8-76.8 0L652.8 273.066667z" p-id="2255"></path><path d="M409.6 640l93.866667 0c25.6 0 42.666667-21.333333 42.666667-42.666667l0-93.866667c0-25.6-21.333333-42.666667-42.666667-42.666667L409.6 460.8c-25.6 0-42.666667 21.333333-42.666667 42.666667L366.933333 597.333333C366.933333 622.933333 384 640 409.6 640zM418.133333 512l76.8 0 0 76.8L418.133333 588.8 418.133333 512z" p-id="2256"></path><path d="M644.266667 640l93.866667 0c25.6 0 42.666667-21.333333 42.666667-42.666667l0-93.866667c0-25.6-21.333333-42.666667-42.666667-42.666667l-93.866667 0c-25.6 0-42.666667 21.333333-42.666667 42.666667L601.6 597.333333C601.6 622.933333 622.933333 640 644.266667 640zM652.8 512l76.8 0 0 76.8-76.8 0L652.8 512z" p-id="2257"></path><path d="M1011.2 947.2c-12.8-38.4-38.4-72.533333-68.266667-93.866667 0-4.266667 0-8.533333 0-12.8 0-51.2-34.133333-93.866667-81.066667-106.666667L861.866667 192c0-42.666667-25.6-72.533333-64-72.533333L362.666667 119.466667c-38.4 0-76.8 34.133333-76.8 72.533333l0 473.6c-17.066667-8.533333-34.133333-12.8-51.2-12.8-72.533333 0-132.266667 59.733333-132.266667 132.266667 0 21.333333 4.266667 38.4 12.8 55.466667-46.933333 17.066667-89.6 55.466667-106.666667 102.4-4.266667 8.533333 0 17.066667 4.266667 25.6S25.6 981.333333 38.4 981.333333l951.466667 0c8.533333 0 17.066667-4.266667 21.333333-12.8C1015.466667 964.266667 1015.466667 955.733333 1011.2 947.2zM362.666667 170.666667l439.466667 0C806.4 170.666667 810.666667 179.2 810.666667 192l0 537.6c-38.4 8.533333-72.533333 34.133333-85.333333 68.266667-38.4-12.8-76.8-17.066667-115.2-17.066667-55.466667 0-115.2 12.8-166.4 38.4-12.8-34.133333-46.933333-59.733333-81.066667-68.266667-4.266667-17.066667-12.8-29.866667-21.333333-42.666667L341.333333 192C341.333333 179.2 349.866667 170.666667 362.666667 170.666667zM81.066667 930.133333c21.333333-25.6 51.2-38.4 81.066667-38.4 12.8 0 21.333333-8.533333 25.6-17.066667 4.266667-8.533333 0-21.333333-8.533333-29.866667-17.066667-12.8-25.6-34.133333-25.6-55.466667 0-42.666667 34.133333-76.8 76.8-76.8 38.4 0 72.533333 29.866667 76.8 68.266667 0 12.8 12.8 25.6 25.6 25.6 34.133333 0 59.733333 25.6 59.733333 59.733333 0 8.533333 4.266667 17.066667 12.8 21.333333 8.533333 4.266667 17.066667 4.266667 25.6 0 51.2-29.866667 106.666667-46.933333 166.4-46.933333 42.666667 0 85.333333 8.533333 123.733333 25.6 8.533333 4.266667 17.066667 4.266667 25.6 0 8.533333-4.266667 12.8-12.8 12.8-21.333333 0-29.866667 29.866667-55.466667 59.733333-55.466667 34.133333 0 59.733333 25.6 59.733333 59.733333 0 4.266667 0 12.8-4.266667 17.066667-4.266667 12.8 0 25.6 12.8 29.866667 17.066667 8.533333 34.133333 12.8 42.666667 38.4L81.066667 934.4z" p-id="2258"></path></svg>