<?xml version="1.0" standalone="no"?><!DOCTYPE svg PUBLIC "-//W3C//DTD SVG 1.1//EN" "http://www.w3.org/Graphics/SVG/1.1/DTD/svg11.dtd"><svg t="1483537425024" class="icon" style="" viewBox="0 0 1449 1024" version="1.1" xmlns="http://www.w3.org/2000/svg" p-id="6199" xmlns:xlink="http://www.w3.org/1999/xlink" width="283.0078125" height="200"><defs><style type="text/css"></style></defs><path d="M924.469292 302.608789c-24.098266-31.032388-55.276871-56.699476-90.169386-74.243784-36.712485-18.42333-76.266738-27.75885-117.566994-27.75885-70.14283 0-136.067733 27.297836-185.636984 76.872248-47.931622 48.009031-75.062599 111.207418-76.856767 178.649536l-0.098051 0c-49.921892 0-96.900524 19.536299-132.276414 55.017121-35.479102 35.479102-55.022282 82.452574-55.022282 132.271254 0 49.923612 19.54318 96.909125 55.022282 132.288456 35.470501 35.480822 82.449133 55.017121 132.276414 55.017121L642.958742 830.721892c16.494987 0 29.909098-13.419272 29.909098-29.909098 0-16.486386-13.414111-29.897057-29.909098-29.897057L454.14111 770.915737c-33.886198 0-65.857815-13.302298-90.023169-37.464212-24.161914-24.161914-37.469372-56.13181-37.469372-90.036931 0-33.886198 13.307459-65.857815 37.469372-90.018008 24.156753-24.161914 56.12665-37.464212 90.023169-37.464212l30.977342 0c8.337804 0 16.405537-3.576294 22.197447-9.870501 5.678377-6.31313 8.439296-14.680177 7.579196-22.851122-0.624432-6.930681-0.942669-13.634296-0.942669-19.919903 0-54.167343 21.091359-105.090391 59.395028-143.383739 38.31055-38.305389 89.231877-59.407069 143.385459-59.407069 31.921731 0 62.460422 7.204193 90.762854 21.395834 27.057008 13.625695 51.139793 33.457869 69.642252 57.34455 5.690418 7.379653 14.317215 11.611343 23.666496 11.611343 6.677812 0 13.009864-2.15885 18.297756-6.235721 6.330332-4.876764 10.37624-11.943341 11.387717-19.880339C931.496304 316.809031 929.361537 308.951162 924.469292 302.608789z" p-id="6200"></path><path d="M922.948636 675.36901c2.779841 2.16057 5.673216 4.174923 8.664642 6.04994 10.912942-5.002338 21.351109-11.365354 31.1356-19.106249l6.256363-4.943852 6.727698 4.279855c14.418707 9.16694 27.50426 20.105685 39.120763 32.418868 45.49582-12.001828 79.197957-53.384653 79.197957-102.566859 0-55.906464-43.450504-101.748045-98.33173-105.812875 9.178981 18.483537 14.363661 39.273861 14.363661 61.263164C1010.081871 605.122967 973.943932 654.991533 922.948636 675.36901z" p-id="6201"></path><path d="M1069.685042 695.280312c-11.035076 8.728289-23.418788 15.784545-36.798495 20.778282 22.864884 31.923451 37.109851 70.283887 40.084075 110.896062l0.25631 3.471361c34.608682-0.245988 59.260852-2.286144 73.412928-4.202446C1142.564709 770.5975 1112.674533 722.615992 1069.685042 695.280312z" p-id="6202"></path><path d="M729.885553 692.768821c11.306867-11.788523 23.998495-22.274856 37.908023-31.120118l6.717377-4.271254 6.251203 4.924929c10.878538 8.571751 22.567289 15.404381 34.777261 20.613143 3.125601-1.847494 6.14111-3.849805 9.055127-6.001774-53.081898-19.321274-91.093133-70.282166-91.093133-129.964467 0-21.726112 5.053944-42.282489 14.019621-60.588846-51.826152 7.00809-91.948071 51.421906-91.948071 105.140277C655.572961 638.923155 686.854778 679.201613 729.885553 692.768821z" p-id="6203"></path><path d="M679.891412 695.280312c-42.953366 27.337401-72.865905 75.337831-76.956538 130.94154 13.307459 1.797608 35.874748 3.743153 67.37159 4.15428l0.254589-3.421476c3.048192-41.420669 17.804059-80.527671 41.480876-112.831286C700.459831 709.294772 689.63978 702.961 679.891412 695.280312z" p-id="6204"></path><path d="M986.29496 697.6043c-5.146835-4.534444-10.537938-8.793657-16.181911-12.732912-4.14912 2.989706-8.422094 5.716221-12.750114 8.30684-10.252385 6.118747-20.972665 11.083241-32.059347 14.857358-14.826394 5.062545-30.284102 7.945599-46.087569 8.64916-2.473646 0.108373-4.93181 0.282113-7.424378 0.282113-0.390485 0-0.772369-0.036124-1.162854-0.036124-16.660126-0.118694-32.998575-2.728235-48.685069-7.684128-11.690472-3.693267-22.992178-8.747211-33.822551-15.001855-4.993737-2.895095-9.925548-5.953608-14.695659-9.383685-5.585486 3.908292-10.923263 8.122779-16.015052 12.598737-8.234592 7.242037-15.763903 15.227201-22.591372 23.798952-21.817283 27.356323-36.194705 60.822793-40.797957 96.682059 16.484666 1.73224 43.830668 3.686386 83.409004 3.686386l52.029136 0 90.652762 0 45.961994 0c39.564575 0 66.93638-1.954146 83.439968-3.693267-4.534444-35.391372-18.59535-68.446714-39.922376-95.589733C1002.576643 713.419809 994.813385 705.112969 986.29496 697.6043z" p-id="6205"></path><path d="M843.564897 659.154415c9.056847 2.279264 18.476656 3.619298 28.226744 3.619298 11.563177 0 22.715226-1.751162 33.260046-4.916328 47.707996-14.329257 82.586749-58.603736 82.586749-110.906384 0-22.040908-6.297648-42.574923-17.029969-60.129552-20.365435-33.328854-56.978148-55.69316-98.815105-55.69316-41.484317 0-77.84072 21.982422-98.300766 54.843381-11.050558 17.738691-17.544309 38.587502-17.544309 60.979331C755.946566 601.068459 793.312727 646.497191 843.564897 659.154415z" p-id="6206"></path></svg>