<?xml version="1.0" standalone="no"?><!DOCTYPE svg PUBLIC "-//W3C//DTD SVG 1.1//EN" "http://www.w3.org/Graphics/SVG/1.1/DTD/svg11.dtd"><svg t="1483537231102" class="icon" style="" viewBox="0 0 1024 1024" version="1.1" xmlns="http://www.w3.org/2000/svg" p-id="771" xmlns:xlink="http://www.w3.org/1999/xlink" width="200" height="200"><defs><style type="text/css"></style></defs><path d="M839.133084 511.414669H619.919407l-109.581768 191.798281L619.919407 895.007137h219.2147l109.594047-191.795211-109.59507-191.797257z m-31.774681 328.795445H651.71967l-78.270644-136.998188 78.270644-137.001257h155.638733l78.270645 137.001257-78.270645 136.998188zM729.539037 319.618435l-109.594048-191.808514H400.743592l-109.594047 191.808514 109.594047 191.796234h219.201397L729.539037 319.618435zM432.517249 456.592063l-78.269621-136.998188 78.269621-136.99921h155.626454l78.283947 136.99921-78.283947 136.998188H432.517249z m-250.987334 54.822606L71.948147 703.21295 181.529915 895.007137h219.213677l109.594047-191.795211-109.594047-191.79828H181.529915v0.001023z m187.41239 328.795445H213.315852l-78.282924-136.998188 78.282924-137.001257h155.62543l78.271668 137.001257-78.270645 136.998188z" p-id="772"></path></svg>