<?xml version="1.0" standalone="no"?><!DOCTYPE svg PUBLIC "-//W3C//DTD SVG 1.1//EN" "http://www.w3.org/Graphics/SVG/1.1/DTD/svg11.dtd"><svg t="1483537284616" class="icon" style="" viewBox="0 0 1024 1024" version="1.1" xmlns="http://www.w3.org/2000/svg" p-id="2369" xmlns:xlink="http://www.w3.org/1999/xlink" width="200" height="200"><defs><style type="text/css"></style></defs><path d="M521.198841 1021.935744c-119.752652 0-210.089656-219.662643-210.089656-510.95497C311.134988 219.688447 401.446189 0 521.198841 0c119.778455 0 210.063853 219.688447 210.063853 511.006577 0 291.292327-90.285398 510.929167-210.063853 510.929167z m0-971.309865c-75.422754 0-159.463777 189.060048-159.463777 460.380698 0 271.269044 84.041023 460.329092 159.463777 460.329091s159.437974-189.060048 159.437974-460.329091c0-271.32065-84.01522-460.380698-159.437974-460.380698z" p-id="2370"></path><path d="M821.935139 827.121582c-108.52826 0-260.199471-50.161421-405.781126-134.202444-114.953257-66.365831-213.418269-146.09772-277.332796-224.513645-69.10097-84.815119-90.46602-160.418496-60.173063-212.902205 15.997984-27.686834 53.567444-60.663324 141.814389-60.663323 108.502457 0 260.173668 50.187224 405.755323 134.228247 252.252085 145.659065 397.34348 333.686985 337.480055 437.441653-15.972181 27.635227-53.515837 60.611717-141.762782 60.611717zM220.488346 245.465844c-50.006602 0-84.815119 12.540355-97.948948 35.350384-18.500895 32.047575 2.270682 90.207988 55.580093 155.6191 60.095653 73.745546 153.658057 149.297316 263.399068 212.644173 138.20194 79.809298 280.42918 127.442006 380.442383 127.442006h0.025804c50.006602 0 84.763513-12.540355 97.923144-35.324581 37.698475-65.333703-84.01522-232.667456-318.953357-368.289077-138.253547-79.809298-280.480786-127.442006-380.468187-127.442005z" p-id="2371"></path><path d="M220.488346 827.121582c-0.025803 0-0.025803 0 0 0-88.246945 0-125.816404-32.950687-141.814389-60.63752-59.863424-103.728865 85.22797-291.782588 337.505859-437.441653 145.581656-84.041023 297.252866-134.228247 405.72952-134.228247 88.272748 0 125.842207 32.97649 141.814388 60.663323 59.863424 103.703062-85.22797 291.756785-337.480055 437.41585-145.581656 84.041023-297.27867 134.228247-405.755323 134.228247zM821.909336 245.465844c-99.987401 0-242.21464 47.632708-380.416581 127.442005C206.528814 508.555273 84.815119 675.863223 122.539398 741.196926c13.133829 22.784226 47.942346 35.324581 97.948948 35.324581 99.987401 0.025803 242.21464-47.658511 380.442383-127.442006 234.938138-135.62162 356.651833-302.92957 318.953358-368.263273-13.159632-22.810029-47.968149-35.350384-97.974751-35.350384z" p-id="2372"></path><path d="M521.198841 511.006577m-73.384302 0a73.384301 73.384301 0 1 0 146.768603 0 73.384301 73.384301 0 1 0-146.768603 0Z" p-id="2373"></path></svg>