<?xml version="1.0" standalone="no"?><!DOCTYPE svg PUBLIC "-//W3C//DTD SVG 1.1//EN" "http://www.w3.org/Graphics/SVG/1.1/DTD/svg11.dtd"><svg t="1483521517495" class="icon" style="" viewBox="0 0 1024 1024" version="1.1" xmlns="http://www.w3.org/2000/svg" p-id="5071" xmlns:xlink="http://www.w3.org/1999/xlink" width="200" height="200"><defs><style type="text/css"></style></defs><path d="M897.53088 687.24736c-4.06528-19.2-21.888-33.73056-43.12064-33.73056-24.28416 0-44.01664 18.89792-44.01664 42.1632l0 162.26304L148.87936 857.94304 148.87936 235.2128l108.88192-0.1792c2.87232 0.65536 5.73952 0.95744 8.58112 0.95744l172.27776 0c23.23456 0 42.1632-19.7376 42.1632-44.01664s-18.92864-44.01664-42.1632-44.01664l-311.2448 0c-34.83648 0-63.18592 28.34944-63.18592 63.21664l0 670.81216c0 34.8672 28.34944 63.21664 63.18592 63.21664l708.43392 0c34.81088 0 63.16032-28.34944 63.16032-63.21664l0.29696-181.69856-0.83968-13.09696L897.53088 687.24736z" p-id="5072"></path><path d="M216.76032 400.28672l172.24704 0c23.26528 0 42.19392-19.7376 42.19392-44.01664 0-24.28416-18.92864-44.01664-42.19392-44.01664L216.76032 312.25344c-23.26528 0-42.19392 19.7376-42.19392 44.01664C174.5664 380.54912 193.49504 400.28672 216.76032 400.28672z" p-id="5073"></path><path d="M212.39296 590.83264l172.24704 0c23.26528 0 42.19392-19.7376 42.19392-44.01664 0-24.28416-18.92864-44.01664-42.19392-44.01664L212.39296 502.79936c-23.23456 0-42.1632 19.7376-42.1632 44.01664C170.22976 571.09504 189.1584 590.83264 212.39296 590.83264z" p-id="5074"></path><path d="M211.70688 794.42432l474.5216 0c22.84544 0 41.4464-19.3792 41.4464-43.24352s-18.60096-43.24352-41.4464-43.24352l-474.5216 0c-22.87616 0-41.47712 19.3792-41.47712 43.24352S188.83072 794.42432 211.70688 794.42432z" p-id="5075"></path><path d="M996.51584 246.87616c-4.7872-15.3088-15.25248-27.81184-29.42464-35.2256l-216.92416-113.21856c-28.4672-14.83264-66.26816-2.87232-81.21856 25.83552L502.76352 442.69056c-2.1248 4.06528-3.44064 8.43264-3.82976 12.85632-0.50688 4.66432-0.03072 9.32864 1.37728 13.75744l53.73952 173.50656c4.48512 14.592 14.47424 26.55744 28.17024 33.792 8.192 4.24448 17.34656 6.51776 26.496 6.51776 5.8624 0 11.66336-0.896 17.34656-2.69312l172.78464-55.1424c2.15552-0.59904 3.94752-1.55648 5.38112-2.45248 11.12576-1.6128 20.03456-7.6544 24.87808-16.98816l163.2768-312.79616C999.86432 278.69184 1001.35936 262.30784 996.51584 246.87616zM926.35648 269.24544l-144.0768 276.07552-27.68896-14.47424 144.13824-276.07552L926.35648 269.24544zM668.64128 486.05184l144.13824-276.13696 26.01472 13.63456-144.13824 276.07552L668.64128 486.05184zM582.10304 440.77568l144.13824-275.95776 26.61376 13.8752L608.7168 454.71232 582.10304 440.77568zM703.21152 582.81984l-86.2464 27.87328-26.8544-86.90176L703.21152 582.81984z" p-id="5076"></path></svg>