<?xml version="1.0" standalone="no"?><!DOCTYPE svg PUBLIC "-//W3C//DTD SVG 1.1//EN" "http://www.w3.org/Graphics/SVG/1.1/DTD/svg11.dtd"><svg t="1483535996445" class="icon" style="" viewBox="0 0 1024 1024" version="1.1" xmlns="http://www.w3.org/2000/svg" p-id="2022" xmlns:xlink="http://www.w3.org/1999/xlink" width="200" height="200"><defs><style type="text/css"></style></defs><path d="M229.516324 297.958112 799.366893 297.958112 229.516324 297.958112Z" p-id="2023"></path><path d="M510.805802 64.644299c-247.25636 0-447.696462 200.440102-447.696462 447.696462s200.440102 447.696462 447.696462 447.696462 447.696462-200.440102 447.696462-447.696462S758.061139 64.644299 510.805802 64.644299zM765.184373 818.898739c0 0-6.139837 35.302017-35.302017 46.046732l-44.017516-101.183494c-56.452733 41.061185-125.650745 65.662489-200.548572 66.729797l0-30.397311c70.980611-4.526083 134.898363-29.249161 186.449459-68.74264L538.927279 425.997254c-9.402137 2.644223-19.317974 4.061502-29.565363 4.061502-11.461029 0-22.50762-1.774413-32.883945-5.054109L287.315728 859.82894c-29.163203-10.744715-35.302017-46.046732-35.302017-46.046732l179.235151-416.72303c-19.09694-19.630083-30.863938-46.428426-30.863938-75.978439 0-51.92358 36.31509-95.359858 84.931345-106.309234L485.316268 115.411543c0 0 26.093285-26.093285 52.185546 0l0 100.369965c46.545082 12.407588 80.836073 54.846142 80.836073 105.301278 0 30.874171-12.842493 58.746986-33.472346 78.57559L711.8824 694.971241c52.108798-55.729256 85.015256-129.8463 90.01513-213.516932l28.281113 0c-0.231267 96.854908-39.825031 184.440709-103.609753 247.661589L765.184373 818.898739z" p-id="2024"></path><path d="M510.240937 321.980225m-61.395302 0a59.997 59.997 0 1 0 122.790604 0 59.997 59.997 0 1 0-122.790604 0Z" p-id="2025"></path></svg>