<?xml version="1.0" standalone="no"?><!DOCTYPE svg PUBLIC "-//W3C//DTD SVG 1.1//EN" "http://www.w3.org/Graphics/SVG/1.1/DTD/svg11.dtd"><svg t="1483521497090" class="icon" style="" viewBox="0 0 1024 1024" version="1.1" xmlns="http://www.w3.org/2000/svg" p-id="4834" xmlns:xlink="http://www.w3.org/1999/xlink" width="200" height="200"><defs><style type="text/css"></style></defs><path d="M932.805632 578.315264 602.843136 578.315264c-6.383616 0-11.549696 5.173248-11.549696 11.549696s5.165056 11.549696 11.549696 11.549696l329.96352 0c6.383616 0 11.549696-5.173248 11.549696-11.549696C944.355328 583.488512 939.189248 578.315264 932.805632 578.315264z" p-id="4835"></path><path d="M932.805632 658.34496 602.843136 658.34496c-6.383616 0-11.549696 5.173248-11.549696 11.549696 0 6.376448 5.165056 11.549696 11.549696 11.549696l329.96352 0c6.383616 0 11.549696-5.173248 11.549696-11.549696C944.355328 663.518208 939.189248 658.34496 932.805632 658.34496z" p-id="4836"></path><path d="M932.805632 738.392064 602.843136 738.392064c-6.383616 0-11.549696 5.173248-11.549696 11.549696s5.165056 11.549696 11.549696 11.549696l329.96352 0c6.383616 0 11.549696-5.173248 11.549696-11.549696C944.354304 743.564288 939.189248 738.392064 932.805632 738.392064z" p-id="4837"></path><path d="M1016.13056 351.054848c-0.067584-0.710656-0.202752-1.38752-0.413696-2.070528-0.512-1.95072-1.34656-3.80416-2.804736-5.256192L735.73888 66.88768l-3.045376-3.04128c-0.984064-0.984064-2.1504-1.691648-3.375104-2.255872-0.36864-0.164864-0.73728-0.267264-1.120256-0.398336-0.955392-0.323584-1.916928-0.515072-2.924544-0.57856-0.256-0.018432-0.489472-0.150528-0.744448-0.150528L111.541248 60.463104c-6.383616 0-11.549696 5.173248-11.549696 11.549696l0 98.886656L19.247104 170.899456c-6.383616 0-11.549696 5.173248-11.549696 11.549696l0 706.25792 0.173056 19.022848c1.05984 29.545472 23.796736 52.770816 52.609024 55.309312 1.05984 0.320512 2.180096 0.49664 3.339264 0.49664l1.759232 0 854.994944 0c56.36096 0 95.729664-38.316032 95.729664-93.17376L1016.302592 351.893504C1016.302592 351.60064 1016.153088 351.34464 1016.13056 351.054848zM976.873472 340.68992 736.075776 340.68992 736.075776 99.892224 976.873472 340.68992zM30.961664 907.20256l-0.165888-713.204736L99.90144 193.997824l0 707.175424c0 0.375808-0.022528 1.92512 0.022528 2.300928l-0.067584 2.180096c0 19.421184-14.94016 34.624512-34.03776 34.758656-0.443392-0.053248-0.992256-0.115712-1.225728-0.126976-0.075776-0.007168-0.135168 0.037888-0.210944 0.033792C46.209024 939.700224 31.616 925.298688 30.961664 907.20256zM920.572928 940.437504 111.24736 940.437504c0.375808-0.503808 0.646144-1.09056 1.007616-1.609728 0.699392-1.007616 1.31584-2.056192 1.954816-3.109888 1.195008-1.974272 2.271232-4.002816 3.24096-6.131712 0.526336-1.154048 1.030144-2.304 1.488896-3.504128 0.872448-2.292736 1.549312-4.668416 2.143232-7.105536 0.27136-1.113088 0.60928-2.180096 0.8192-3.319808 0.661504-3.601408 1.09056-7.297024 1.09056-11.116544 0.053248-1.082368 0.075776-2.13504 0.060416-2.962432 0.03072-0.316416 0.037888-0.631808 0.037888-0.948224L123.090944 83.561472l589.886464 0 0 268.67712c0 6.376448 5.173248 11.549696 11.549696 11.549696l268.678144 0 0 506.5728C993.205248 912.932864 964.692992 940.437504 920.572928 940.437504z" p-id="4838"></path><path d="M512.172032 578.315264 182.209536 578.315264c-6.383616 0-11.549696 5.173248-11.549696 11.549696s5.165056 11.549696 11.549696 11.549696L512.17408 601.414656c6.383616 0 11.549696-5.173248 11.549696-11.549696C523.722752 583.488512 518.556672 578.315264 512.172032 578.315264z" p-id="4839"></path><path d="M182.209536 149.291008l488.512512 0c6.376448 0 11.549696-5.173248 11.549696-11.549696 0-6.376448-5.173248-11.549696-11.549696-11.549696L182.209536 126.191616c-6.383616 0-11.549696 5.173248-11.549696 11.549696C170.65984 144.11776 175.826944 149.291008 182.209536 149.291008z" p-id="4840"></path><path d="M182.209536 221.75744l488.512512 0c6.376448 0 11.549696-5.173248 11.549696-11.549696s-5.173248-11.549696-11.549696-11.549696L182.209536 198.658048c-6.383616 0-11.549696 5.173248-11.549696 11.549696C170.660864 216.584192 175.826944 221.75744 182.209536 221.75744z" p-id="4841"></path><path d="M182.209536 294.222848l488.512512 0c6.376448 0 11.549696-5.173248 11.549696-11.549696 0-6.376448-5.173248-11.549696-11.549696-11.549696L182.209536 271.123456c-6.383616 0-11.549696 5.173248-11.549696 11.549696C170.660864 289.050624 175.826944 294.222848 182.209536 294.222848z" p-id="4842"></path><path d="M182.209536 366.690304l488.512512 0c6.376448 0 11.549696-5.173248 11.549696-11.549696 0-6.376448-5.173248-11.549696-11.549696-11.549696L182.209536 343.590912c-6.383616 0-11.549696 5.173248-11.549696 11.549696C170.660864 361.517056 175.826944 366.690304 182.209536 366.690304z" p-id="4843"></path><path d="M182.209536 477.021184l312.225792 0c6.376448 0 11.549696-5.173248 11.549696-11.549696s-5.173248-11.549696-11.549696-11.549696L182.209536 453.921792c-6.383616 0-11.549696 5.173248-11.549696 11.549696C170.660864 471.847936 175.826944 477.021184 182.209536 477.021184z" p-id="4844"></path><path d="M512.172032 658.34496 182.209536 658.34496c-6.383616 0-11.549696 5.173248-11.549696 11.549696 0 6.376448 5.165056 11.549696 11.549696 11.549696L512.17408 681.444352c6.383616 0 11.549696-5.173248 11.549696-11.549696C523.722752 663.518208 518.556672 658.34496 512.172032 658.34496z" p-id="4845"></path><path d="M512.172032 738.392064 182.209536 738.392064c-6.383616 0-11.549696 5.173248-11.549696 11.549696s5.165056 11.549696 11.549696 11.549696L512.17408 761.491456c6.383616 0 11.549696-5.173248 11.549696-11.549696C523.721728 743.564288 518.556672 738.392064 512.172032 738.392064z" p-id="4846"></path><path d="M512.172032 818.42176 182.209536 818.42176c-6.383616 0-11.549696 5.173248-11.549696 11.549696s5.165056 11.549696 11.549696 11.549696L512.17408 841.521152c6.383616 0 11.549696-5.173248 11.549696-11.549696C523.721728 823.595008 518.556672 818.42176 512.172032 818.42176z" p-id="4847"></path><path d="M932.805632 818.42176 602.843136 818.42176c-6.383616 0-11.549696 5.173248-11.549696 11.549696s5.165056 11.549696 11.549696 11.549696l329.96352 0c6.383616 0 11.549696-5.173248 11.549696-11.549696C944.354304 823.595008 939.189248 818.42176 932.805632 818.42176z" p-id="4848"></path></svg>