<?xml version="1.0" standalone="no"?><!DOCTYPE svg PUBLIC "-//W3C//DTD SVG 1.1//EN" "http://www.w3.org/Graphics/SVG/1.1/DTD/svg11.dtd"><svg t="1483536010127" class="icon" style="" viewBox="0 0 1024 1024" version="1.1" xmlns="http://www.w3.org/2000/svg" p-id="2248" xmlns:xlink="http://www.w3.org/1999/xlink" width="200" height="200"><defs><style type="text/css"></style></defs><path d="M272.64 32l441.504 0c27.392 0 52.288 11.2 70.304 29.216 18.016 18.048 29.248 42.912 29.248 70.336l0 211.04-41.92 41.472L771.776 131.552c0-15.84-6.496-30.24-16.96-40.704-10.432-10.464-24.864-16.96-40.672-16.96L328.928 73.888l61.184 52.736c8.736 7.552 9.696 20.736 2.144 29.472l-0.416 0.448-211.84 254.176L180 800c0 15.84 6.496 30.24 16.96 40.704 10.464 10.464 24.864 16.96 40.704 16.96l126.24 0-14.752 41.888L237.664 899.552c-27.392 0-52.288-11.2-70.304-29.216C149.312 852.288 138.112 827.392 138.112 800L138.112 403.232c0-2.848 0.576-5.568 1.6-8.064L252.64 46.88c0.384-1.312 0.928-2.592 1.568-3.808l0-0.032L254.4 42.752l0.064-0.096 0.224-0.384 0 0c1.088-1.824 2.432-3.488 3.968-4.864l0.064-0.032 0.16-0.128 0.224-0.224 0.064-0.064 0.32-0.256 0-0.032L259.808 36.48C261.632 35.04 263.68 33.952 265.824 33.216l0.384-0.128L266.592 32.96l0.096-0.032 0.288-0.064 0.192-0.064 0.064-0.032C267.552 32.672 267.84 32.608 268.16 32.544l0 0 0.384-0.096 0.096 0c1.28-0.256 2.624-0.384 3.968-0.384L272.608 32 272.64 32zM262.976 604.384l0 33.568 218.208 0 0-33.568L262.976 604.384 262.976 604.384zM262.976 513.28l0 33.568 218.208 0L481.184 513.28 262.976 513.28 262.976 513.28zM262.976 427.456l0 33.568 436.384 0 0-33.568L262.976 427.456 262.976 427.456zM488.352 323.552l0 33.568 211.008 0 0-33.568L488.352 323.552 488.352 323.552zM488.352 230.848l0 33.568 211.008 0L699.36 230.848 488.352 230.848 488.352 230.848zM488.352 146.112l0 33.568 211.008 0L699.36 146.112 488.352 146.112 488.352 146.112zM794.208 426.4 454.88 765.696l101.792 101.792L896 528.192 794.208 426.4 794.208 426.4zM441.856 781.408l-38.848 110.336 32.768 32.768 106.688-42.528L441.856 781.408 441.856 781.408zM813.664 680.736l-41.92 41.472L771.744 800c0 15.84-6.496 30.24-16.96 40.704-10.432 10.464-24.864 16.96-40.672 16.96l-79.2 0-24.448 24.192 17.696 17.696 85.952 0c27.392 0 52.288-11.2 70.304-29.216 18.016-18.048 29.248-42.944 29.248-70.336L813.664 680.736 813.664 680.736zM212.288 306.816l134.976-161.952L282.816 89.28 212.288 306.816z" p-id="2249"></path></svg>