<?xml version="1.0" standalone="no"?><!DOCTYPE svg PUBLIC "-//W3C//DTD SVG 1.1//EN" "http://www.w3.org/Graphics/SVG/1.1/DTD/svg11.dtd"><svg t="1483536706082" class="icon" style="" viewBox="0 0 1024 1024" version="1.1" xmlns="http://www.w3.org/2000/svg" p-id="2360" xmlns:xlink="http://www.w3.org/1999/xlink" width="200" height="200"><defs><style type="text/css"></style></defs><path d="M172.659385 399.551952c0-92.120071 32.900318-171.0794 98.699929-236.880035 65.799612-65.800635 145.700383-98.699929 239.700267-98.699929s173.900655 32.900318 240.639662 98.699929c66.74003 65.799612 99.639325 144.758941 99.639325 236.880035 0 12.220323 0 25.38004-1.879813 38.539758-1.880837 1.880837-1.880837 6.580882-1.880837 8.460696l-5.63944 31.020504c-1.879813 0-1.879813 2.819209-1.879813 5.63944-3.76065 12.219299-7.520277 22.559808-10.339486 31.019481l0 1.880837c0 0 0 0-1.880837 1.879813-4.700045 12.220323-9.400091 24.439622-14.100136 32.900318 0 0.939395 0 1.880837-1.879813 1.880837-5.640464 12.219299-12.220323 22.558785-19.7406 32.900318-7.519254 10.339486-15.039531 20.679995-22.558785 31.019481 0 0 0 0-0.940418 0.939395l-0.939395 0.940418c-7.519254 8.458649-15.039531 15.97995-24.439622 24.439622 0 0-0.939395 0-2.820232 1.879813-4.700045 2.820232-4.700045 5.63944-9.400091 10.339486-1.879813 0-5.63944 0.940418-5.63944 3.76065l-15.97995 13.160741-3.76065 2.820232-2.819209 1.879813c-10.340509 8.460696-17.859763 17.859763-22.559808 28.200272-4.700045 10.339486-9.400091 17.859763-14.100136 22.559808-4.700045 4.700045-14.100136 6.579859-26.320459 6.579859L385.099798 734.193545c-13.160741 0-21.620413-1.879813-26.320459-6.579859-4.700045-4.700045-9.400091-12.220323-15.039531-22.559808-5.63944-10.339486-13.160741-19.739577-21.61939-28.200272-0.940418 0-1.880837 0-3.76065-1.879813l-2.820232-2.820232-16.919345-13.160741-5.640464-3.76065-6.579859-6.579859-5.63944-5.63944-24.439622-24.439622c0 0 0 0-0.940418-0.940418l-0.939395-0.939395c-15.97995-20.679995-30.079062-41.35999-42.300408-64.860217-0.939395 0-1.879813 0-1.879813-1.879813-4.700045-9.400091-9.400091-20.679995-14.100136-32.900318-0.939395 0-1.880837 0-1.880837-1.879813l0-1.880837c-3.758604-9.400091-7.519254-19.739577-10.339486-31.019481 0 0 0-0.940418-0.939395-2.820232l-0.939395-2.820232c-1.880837-9.400091-3.76065-19.739577-5.63944-31.019481 0-1.880837-1.880837-6.580882-1.880837-8.460696C173.599803 424.931992 172.659385 411.772274 172.659385 399.551952L172.659385 399.551952 172.659385 399.551952 172.659385 399.551952 172.659385 399.551952M372.879476 790.592043 655.82057 790.592043c15.97995 0 28.200272 12.220323 28.200272 28.200272 0 15.980973-12.220323 28.200272-28.200272 28.200272L372.879476 846.992587c-15.97995 0-28.200272-12.219299-28.200272-28.200272C344.679204 801.87297 355.960131 790.592043 372.879476 790.592043L372.879476 790.592043 372.879476 790.592043 372.879476 790.592043 372.879476 790.592043M385.099798 902.452713l255.680217 0-104.340393 52.639894c-15.97995 6.579859-34.779108 6.579859-50.760081 0L385.099798 902.452713 385.099798 902.452713 385.099798 902.452713 385.099798 902.452713M542.079062 231.29176c33.840736 0 65.799612 13.160741 95.880721 41.35999 30.079062 27.259854 45.119617 61.10059 45.119617 102.46058 0 14.100136 12.220323 28.200272 28.200272 28.200272 15.980973 0 28.200272-14.100136 28.200272-28.200272 0-61.099566-19.739577-109.039415-60.159148-144.759965-40.420595-36.659945-86.48063-54.520731-138.181129-54.520731-15.97995 0-28.200272 12.220323-28.200272 28.200272C513.879813 220.011856 526.100136 231.29176 542.079062 231.29176L542.079062 231.29176 542.079062 231.29176 542.079062 231.29176M542.079062 231.29176 542.079062 231.29176z" p-id="2361"></path></svg>