<?xml version="1.0" standalone="no"?><!DOCTYPE svg PUBLIC "-//W3C//DTD SVG 1.1//EN" "http://www.w3.org/Graphics/SVG/1.1/DTD/svg11.dtd"><svg t="1483536783557" class="icon" style="" viewBox="0 0 1024 1024" version="1.1" xmlns="http://www.w3.org/2000/svg" p-id="3569" xmlns:xlink="http://www.w3.org/1999/xlink" width="200" height="200"><defs><style type="text/css"></style></defs><path d="M873.767394 852.441693" p-id="3570"></path><path d="M866.12739 781.116227c56.886615-74.840522 90.670046-168.198793 90.670046-269.455965 0-246.161423-199.552895-445.713294-445.714318-445.713294-246.160399 0-445.713294 199.550849-445.713294 445.713294s199.552895 445.714318 445.713294 445.714318c94.158497 0 181.492564-29.195949 253.451456-79.028914-0.151449-0.053212-0.292666-0.11768-0.444115-0.170892 7.29515-5.880941 11.969613-14.885012 11.969613-24.984021 0-17.714454-14.354939-32.06837-32.069393-32.06837-9.68457 0-18.361183 4.298909-24.24417 11.086499-0.01535-0.053212-0.038886-0.102331-0.053212-0.155543-59.877739 38.891775-131.319861 61.490469-208.039173 61.490469-211.220632 0-382.447389-171.228803-382.447389-382.452505 0-211.218586 171.22778-382.447389 382.447389-382.447389 211.218586 0 382.446365 171.228803 382.446365 382.447389 0 86.74669-28.884864 166.743652-77.553307 230.905974-6.588045 5.872754-10.741645 14.423501-10.741645 23.942295 0 17.709337 14.354939 32.069393 32.069393 32.069393 8.242731 0 15.760962-3.115967 21.444405-8.229428 0.005117 0.024559 0.01535 0.044002 0.01842 0.068562 0.083911-0.102331 0.160659-0.204661 0.24457-0.306992C862.201987 787.124058 864.423585 784.281313 866.12739 781.116227L866.12739 781.116227z" p-id="3571"></path><path d="M866.12739 781.116227" p-id="3572"></path><path d="M583.25895 785.658683 438.908308 785.658683 438.908308 734.102471 583.25895 734.102471 583.25895 785.658683Z" p-id="3573"></path><path d="M624.455211 609.92631l0.047072 0.060375c-17.419741 11.751648-41.23924 41.315988-41.23924 82.508155l0 20.985964-61.866023 0L521.397021 484.759589c17.747199-4.592598 30.922267-20.566408 30.922267-39.72884 0-22.740934-18.459421-41.188074-41.235147-41.188074-22.776749 0-41.232077 18.447141-41.232077 41.188074 0 19.162432 13.166881 35.136242 30.918173 39.72884l0 228.721215-61.86193 0L438.908308 692.49484c0-38.785352-22.928199-68.185962-38.889729-80.765465l-3.121084-2.426259c-49.602721-37.598316-81.721233-96.981798-81.721233-163.976632 0-113.762997 82.004689-206.000747 195.907878-206.000747 113.902166 0 195.906855 92.237751 195.906855 206.000747C706.990996 512.692778 674.528654 572.367903 624.455211 609.92631L624.455211 609.92631z" p-id="3574"></path></svg>