<?xml version="1.0" standalone="no"?><!DOCTYPE svg PUBLIC "-//W3C//DTD SVG 1.1//EN" "http://www.w3.org/Graphics/SVG/1.1/DTD/svg11.dtd"><svg t="1483537012234" class="icon" style="" viewBox="0 0 1024 1024" version="1.1" xmlns="http://www.w3.org/2000/svg" p-id="3383" xmlns:xlink="http://www.w3.org/1999/xlink" width="200" height="200"><defs><style type="text/css"></style></defs><path d="M316.664 187.744 479.674 83.42C497.844 71.734 527.314 71.734 545.488 83.42L708.646 187.744M708.646 187.744 946.934 341.652C965.11 353.34 965.11 372.29 946.934 383.984L863.144 383.992 863.144 904.61C863.144 930.088 842.36 950.716 816.718 950.716L213.23 950.716C187.59 950.716 166.804 930.088 166.804 904.61L166.804 383.992 78.224 383.984C60.05 372.29 60.05 353.34 78.224 341.652L316.664 187.744M398.92 840.076C398.92 850.25 407.23 858.512 417.486 858.512L473.192 858.512C483.452 858.512 491.764 850.25 491.764 840.076L491.764 784.742C491.764 774.56 483.452 766.306 473.192 766.306L417.486 766.306C407.23 766.306 398.92 774.56 398.92 784.742L398.92 840.076ZM352.494 508.112C352.494 497.908 344.18 489.662 333.928 489.662L278.216 489.662C267.962 489.662 259.648 497.908 259.648 508.112L259.648 563.416C259.648 573.622 267.962 581.874 278.216 581.874L333.928 581.874C344.18 581.874 352.494 573.622 352.494 563.416L352.494 508.112ZM352.494 646.43C352.494 636.24 344.18 627.98 333.928 627.98L278.216 627.98C267.962 627.98 259.648 636.24 259.648 646.43L259.648 701.75C259.648 711.948 267.962 720.192 278.216 720.192L333.928 720.192C344.18 720.192 352.494 711.948 352.494 701.75L352.494 646.43ZM352.494 784.742C352.494 774.56 344.18 766.306 333.928 766.306L278.216 766.306C267.962 766.306 259.648 774.56 259.648 784.742L259.648 840.076C259.648 850.25 267.962 858.512 278.216 858.512L333.928 858.512C344.18 858.512 352.494 850.25 352.494 840.076L352.494 784.742ZM398.92 701.75C398.92 711.948 407.23 720.192 417.486 720.192L473.192 720.192C483.452 720.192 491.764 711.948 491.764 701.75L491.764 646.43C491.764 636.24 483.452 627.98 473.192 627.98L417.486 627.98C407.23 627.98 398.92 636.24 398.92 646.43L398.92 701.75ZM631.03 784.742C631.03 774.56 622.716 766.306 612.462 766.306L556.758 766.306C546.5 766.306 538.184 774.56 538.184 784.742L538.184 840.076C538.184 850.25 546.5 858.512 556.758 858.512L612.462 858.512C622.716 858.512 631.03 850.25 631.03 840.076L631.03 784.742ZM770.296 784.742C770.296 774.56 761.982 766.306 751.732 766.306L696.02 766.306C685.768 766.306 677.452 774.56 677.452 784.742L677.452 840.076C677.452 850.25 685.768 858.512 696.02 858.512L751.732 858.512C761.982 858.512 770.296 850.25 770.296 840.076L770.296 784.742Z" p-id="3384"></path></svg>